<?xml version="1.0" encoding="UTF-8" standalone="no"?>
<!DOCTYPE svg PUBLIC "-//W3C//DTD SVG 1.1//EN" "http://www.w3.org/Graphics/SVG/1.1/DTD/svg11.dtd">
<svg width="100%" height="100%" viewBox="0 0 64 64" version="1.1" xmlns="http://www.w3.org/2000/svg" xmlns:xlink="http://www.w3.org/1999/xlink" xml:space="preserve" xmlns:serif="http://www.serif.com/" style="fill-rule:evenodd;clip-rule:evenodd;">
    <circle cx="32" cy="32" r="30" style="fill:rgb(0,102,204);stroke:rgb(0,64,128);stroke-width:2px;"/>
    <g transform="matrix(1,0,0,1,-1,0)">
        <path d="M28,21C28,20.448 27.552,20 27,20L17,20C16.448,20 16,20.448 16,21L16,29C16,29.552 16.448,30 17,30L27,30C27.552,30 28,29.552 28,29L28,21Z" style="fill:white;fill-opacity:0.9;"/>
    </g>
    <g transform="matrix(1,0,0,1,-1,0)">
        <path d="M42,21C42,20.448 41.552,20 41,20L31,20C30.448,20 30,20.448 30,21L30,29C30,29.552 30.448,30 31,30L41,30C41.552,30 42,29.552 42,29L42,21Z" style="fill:white;fill-opacity:0.9;"/>
    </g>
    <g transform="matrix(1,0,0,1,-1,0)">
        <path d="M50,21C50,20.448 49.552,20 49,20L45,20C44.448,20 44,20.448 44,21L44,29C44,29.552 44.448,30 45,30L49,30C49.552,30 50,29.552 50,29L50,21Z" style="fill:white;fill-opacity:0.7;"/>
    </g>
    <g transform="matrix(-0.00486923,-0.999988,0.999988,-0.00486923,-6.84362,76.2041)">
        <path d="M32,35L32,48M26,42L32,48L38,42M28,35C28,32.806 29.806,31 32,31C34.194,31 36,32.806 36,35" style="fill:none;fill-rule:nonzero;stroke:white;stroke-width:2.5px;stroke-linecap:round;stroke-linejoin:round;"/>
    </g>
</svg>
